<?xml version="1.0"?>
<svg version="1.1" xmlns="http://www.w3.org/2000/svg" width="109px" height="57px" style="border: dashed 2px #aaa"><path fill="#e4ebf0" d="M12.3701171875,47.232421875q0-0.7861328125,0.5390625-0.99951171875t1.16796875-0.21337890625q1.1005859375,0,1.8642578125,0.98828125t1.44873046875,2.16748046875t1.35888671875,2.16748046875t1.5947265625,0.98828125q0.6962890625,0,1.26904296875-0.34814453125t0.98828125-0.8759765625t0.64013671875-1.1904296875t0.224609375-1.31396484375q0-1.70703125-0.68505859375-3.5263671875t-1.751953125-3.7509765625t-2.25732421875-3.953125t-2.24609375-4.1103515625t-1.751953125-4.25634765625t-0.6962890625-4.36865234375q0-3.3017578125,1.9765625-5.12109375t5.2109375-1.8193359375q1.1005859375,0,2.2236328125,0.314453125t2.06640625,0.943359375t1.53857421875,1.5498046875t0.59521484375,2.15625q0,0.404296875-0.59521484375,0.52783203125t-0.86474609375,0.12353515625q-0.404296875,0-0.8759765625-0.10107421875t-0.6064453125-0.55029296875t-0.3818359375-1.033203125t-0.61767578125-1.08935546875t-0.8759765625-0.8759765625t-1.11181640625-0.37060546875q-1.0107421875,0-1.71826171875,0.41552734375t-1.1455078125,1.11181640625t-0.6513671875,1.56103515625t-0.21337890625,1.78564453125q0,2.15625,0.7412109375,4.34619140625t1.841796875,4.357421875t2.39208984375,4.27880859375t2.39208984375,4.1103515625t1.841796875,3.908203125t0.7412109375,3.6162109375q0,1.52734375-0.71875,2.5830078125t-1.8193359375,1.71826171875t-2.43701171875,0.9658203125t-2.61669921875,0.30322265625q-1.3701171875,0-2.8076171875-0.55029296875t-2.5830078125-1.51611328125t-1.88671875-2.25732421875t-0.7412109375-2.79638671875z M31.656650390625,41.1455078125q0-0.44921875,0.10107421875-1.1904296875t0.23583984375-1.47119140625t0.314453125-1.35888671875t0.4267578125-0.80859375q0.1796875-0.1796875,0.61767578125-0.359375t0.9208984375-0.25830078125t0.8984375,0.0673828125t0.50537109375,0.59521484375q-0.314453125,0.404296875-0.57275390625,1.38134765625t-0.39306640625,2.16748046875q-0.1123046875,1.0107421875-0.1123046875,2.0888671875l0,0.3818359375q0.0224609375,1.2578125,0.224609375,2.3134765625t0.61767578125,1.74072265625t1.15673828125,0.68505859375q1.572265625,0,2.875-1.44873046875t2.3134765625-3.53759765625t1.7744140625-4.43603515625t1.302734375-4.09912109375q0.134765625-0.5166015625,0.64013671875-0.6962890625t1.08935546875-0.12353515625t1.04443359375,0.28076171875t0.55029296875,0.5390625q-0.44921875,3.7734375-0.70751953125,7.546875t-0.25830078125,7.591796875q0,0.7412109375,0.0673828125,1.35888671875t-0.0673828125,1.0556640625t-0.59521484375,0.6962890625t-1.47119140625,0.25830078125q-0.224609375,0-0.57275390625-0.044921875t-0.71875-0.14599609375t-0.62890625-0.30322265625t-0.25830078125-0.4716796875q0-1.662109375,0.12353515625-3.4140625t0.34814453125-3.3916015625q-0.6064453125,0.8759765625-1.33642578125,1.74072265625t-1.60595703125,1.56103515625t-1.88671875,1.11181640625t-2.1787109375,0.41552734375q-1.662109375,0-2.61669921875-0.7861328125t-1.4375-1.96533203125t-0.6064453125-2.57177734375t-0.12353515625-2.6953125z M52.78498046875,36.5859375q0-1.572265625,0.14599609375-4.087890625t0.34814453125-5.1884765625t0.50537109375-5.06494140625t0.66259765625-3.67236328125q0.134765625-0.5615234375,0.64013671875-0.673828125t1.02197265625-0.1123046875q0.6962890625,0,1.20166015625,0.2470703125t0.50537109375,1.078125q0,4.087890625-0.50537109375,8.18701171875t-0.55029296875,8.18701171875q0.6962890625-1.0556640625,1.796875-1.58349609375t2.3359375-0.52783203125q1.70703125,0,2.9423828125,0.6962890625t1.9990234375,1.796875t1.13427734375,2.54931640625t0.37060546875,2.95361328125q0,0.8310546875-0.16845703125,2.07763671875t-0.50537109375,2.6279296875t-0.853515625,2.740234375t-1.22412109375,2.43701171875t-1.62841796875,1.74072265625t-2.021484375,0.66259765625q-0.224609375,0-0.59521484375-0.0673828125t-0.7412109375-0.2021484375t-0.61767578125-0.34814453125t-0.2470703125-0.52783203125q0-0.359375,0.43798828125-0.50537109375t0.70751953125-0.14599609375q1.0107421875-0.44921875,1.796875-1.87548828125t1.31396484375-3.13330078125t0.79736328125-3.38037109375t0.26953125-2.72900390625q0-0.6064453125-0.1796875-1.6171875t-0.55029296875-1.9990234375t-1.0107421875-1.70703125t-1.51611328125-0.71875q-1.0556640625,0-1.6845703125,1.08935546875t-0.98828125,2.5380859375t-0.48291015625,2.9873046875t-0.12353515625,2.41455078125q0,0.5615234375,0.19091796875,1.11181640625t0.43798828125,1.1005859375t0.43798828125,1.123046875t0.19091796875,1.13427734375q0,0.26953125-0.23583984375,0.44921875t-0.55029296875,0.2919921875t-0.66259765625,0.14599609375t-0.52783203125,0.03369140625q-1.2802734375,0-1.7744140625-0.6064453125t-0.853515625-1.70703125q-0.7861328125-2.4931640625-1.08935546875-5.06494140625t-0.30322265625-5.15478515625z M71.936748046875,42.5830078125q0-2.06640625,0.48291015625-4.05419921875t0.81982421875-3.96435546875q0.08984375-0.5166015625,0.70751953125-0.64013671875t1.04443359375-0.12353515625q0.7412109375,0,1.1904296875,0.224609375q0.1796875,0.08984375,0.3369140625,0.2021484375t0.1572265625,0.2919921875q0,1.931640625-0.46044921875,3.7734375t-0.46044921875,3.908203125q0,0.6962890625,0.10107421875,1.31396484375t0.19091796875,1.22412109375l0.134765625,0.6513671875q0,0.1796875,0.0224609375,0.314453125t0.0673828125,0.314453125q0,0.404296875-0.57275390625,0.55029296875t-0.99951171875,0.14599609375q-0.6513671875,0-1.20166015625-0.25830078125t-0.86474609375-0.88720703125l-0.314453125-0.6513671875q-0.26953125-0.5166015625-0.26953125-1.15673828125t-0.1123046875-1.17919921875z M73.374248046875,29.0615234375l0-0.4267578125q0-1.0556640625,0.52783203125-1.88671875t1.58349609375-0.8310546875q0.134765625,0,0.25830078125,0.0224609375t0.25830078125,0.0224609375q0.26953125,0.044921875,0.70751953125,0.21337890625t0.43798828125,0.52783203125l0,0.044921875q-0.08984375,0.1796875-0.1123046875,0.37060546875t-0.1123046875,0.32568359375l0.044921875-0.044921875q-0.26953125,0.6962890625-0.43798828125,1.123046875t-0.37060546875,0.68505859375t-0.50537109375,0.37060546875t-0.86474609375,0.1123046875q-0.08984375,0-0.314453125-0.0224609375t-0.48291015625-0.08984375t-0.43798828125-0.1796875t-0.1796875-0.3369140625z M81.744765625,36.8330078125q0-0.9208984375,0.32568359375-1.5498046875t1.38134765625-0.62890625q0.404296875,0,1.0107421875,0.12353515625t0.6962890625,0.61767578125q0.224609375,1.3251953125,0.2470703125,2.875t0.1572265625,2.919921875q0.5166015625-1.0107421875,1.3251953125-2.1787109375t1.841796875-2.15625t2.24609375-1.6396484375t2.470703125-0.6513671875q0.08984375,0,0.3369140625,0.0673828125t0.46044921875,0.19091796875t0.25830078125,0.28076171875t-0.2470703125,0.2919921875q-0.08984375,0.26953125-0.3818359375,0.32568359375t-0.5166015625,0.05615234375q-0.134765625,0-0.4267578125-0.1123046875q-1.662109375,0.8759765625-2.830078125,2.380859375t-1.9091796875,3.33544921875t-1.078125,3.86328125t-0.3369140625,3.96435546875q0,0.9658203125-0.43798828125,1.16796875t-1.40380859375,0.2021484375q-0.5166015625,0-1.08935546875-0.1123046875t-0.79736328125-0.71875q-0.404296875-1.2802734375-0.66259765625-2.9423828125t-0.39306640625-3.42529296875t-0.19091796875-3.47021484375t-0.05615234375-3.0771484375z"/><path fill="#161c21" d=""/></svg>
